<svg xmlns="http://www.w3.org/2000/svg" viewBox="0 0 180 180" width="180" height="180">
  <!--
    Apple Touch Icon source
    Full black background with gradient music-ai glyph optically centered.
    Glyph bbox: x=[1, 22.1] y=[0.89, 21] => geometric center (11.55, 10.945)
    Optical center shifted down ~1 unit to (11.55, 12.0) to account for
    heavier visual weight of music notes in lower half vs lighter sparkle at top.
    
    scale(5.0) in 180px => 58.6% width ratio (slight increase from icon-source's 53.6%).
  -->
  <defs>
    <linearGradient id="mood-gradient" x1="0" y1="0" x2="1" y2="1">
      <stop offset="0%" stop-color="hsl(5, 77%, 55%)"/>
      <stop offset="20%" stop-color="hsl(75, 72%, 55%)"/>
      <stop offset="40%" stop-color="hsl(170, 50%, 55%)"/>
      <stop offset="60%" stop-color="hsl(230, 55%, 55%)"/>
      <stop offset="80%" stop-color="hsl(270, 45%, 50%)"/>
      <stop offset="100%" stop-color="hsl(310, 82%, 55%)"/>
    </linearGradient>
  </defs>

  <!-- Full black background -->
  <rect width="180" height="180" fill="#000000"/>

  <!--
    Centering: translate to canvas center, rotate, scale, offset optical center to origin.
    Optical center: (11.55, 12.0) — shifted ~1 unit below geometric center.
  -->
  <g transform="translate(90, 90) rotate(3) scale(5.0) translate(-11.55, -11.5)">
    <path d="M18.7134 8.12811L18.4668 8.69379C18.2864 9.10792 17.7136 9.10792 17.5331 8.69379L17.2866 8.12811C16.8471 7.11947 16.0555 6.31641 15.0677 5.87708L14.308 5.53922C13.8973 5.35653 13.8973 4.75881 14.308 4.57612L15.0252 4.25714C16.0384 3.80651 16.8442 2.97373 17.2761 1.93083L17.5293 1.31953C17.7058 0.893489 18.2942 0.893489 18.4706 1.31953L18.7238 1.93083C19.1558 2.97373 19.9616 3.80651 20.9748 4.25714L21.6919 4.57612C22.1027 4.75881 22.1027 5.35653 21.6919 5.53922L20.9323 5.87708C19.9445 6.31641 19.1529 7.11947 18.7134 8.12811ZM7 3H12V6H9V17C9 19.2091 7.20914 21 5 21C2.79086 21 1 19.2091 1 17C1 14.7909 2.79086 13 5 13C5.72857 13 6.41165 13.1948 7 13.5351V3ZM18 13.5351V11H20V17C20 19.2091 18.2091 21 16 21C13.7909 21 12 19.2091 12 17C12 14.7909 13.7909 13 16 13C16.7286 13 17.4117 13.1948 18 13.5351Z" fill="url(#mood-gradient)"/>
    <path d="M18.7134 8.12811L18.4668 8.69379C18.2864 9.10792 17.7136 9.10792 17.5331 8.69379L17.2866 8.12811C16.8471 7.11947 16.0555 6.31641 15.0677 5.87708L14.308 5.53922C13.8973 5.35653 13.8973 4.75881 14.308 4.57612L15.0252 4.25714C16.0384 3.80651 16.8442 2.97373 17.2761 1.93083L17.5293 1.31953C17.7058 0.893489 18.2942 0.893489 18.4706 1.31953L18.7238 1.93083C19.1558 2.97373 19.9616 3.80651 20.9748 4.25714L21.6919 4.57612C22.1027 4.75881 22.1027 5.35653 21.6919 5.53922L20.9323 5.87708C19.9445 6.31641 19.1529 7.11947 18.7134 8.12811ZM7 3H12V6H9V17C9 19.2091 7.20914 21 5 21C2.79086 21 1 19.2091 1 17C1 14.7909 2.79086 13 5 13C5.72857 13 6.41165 13.1948 7 13.5351V3ZM18 13.5351V11H20V17C20 19.2091 18.2091 21 16 21C13.7909 21 12 19.2091 12 17C12 14.7909 13.7909 13 16 13C16.7286 13 17.4117 13.1948 18 13.5351Z" fill="none" stroke="rgba(255,255,255,0.25)" stroke-width="0.35"/>
  </g>
</svg>
